<?xml version="1.0" encoding="UTF-8" standalone="no"?><!DOCTYPE svg PUBLIC "-//W3C//DTD SVG 1.1//EN" "http://www.w3.org/Graphics/SVG/1.1/DTD/svg11.dtd"><svg width="100%" height="100%" viewBox="0 0 1800 1800" version="1.1" xmlns="http://www.w3.org/2000/svg" xmlns:xlink="http://www.w3.org/1999/xlink" xml:space="preserve" xmlns:serif="http://www.serif.com/" style="fill-rule:evenodd;clip-rule:evenodd;stroke-linejoin:round;stroke-miterlimit:2;"><rect id="Page-1" serif:id="Page 1" x="0" y="0" width="1800" height="1800" style="fill:none;"/><g id="Layer-3" serif:id="Layer 3"></g><g id="Layer-2" serif:id="Layer 2"></g><g id="Layer-1" serif:id="Layer 1"><g><path d="M1085.557,1321.922l25.142,0l0,-490.404l-31.046,22.771l5.904,467.633Zm49.213,24.071l-72.983,0l-6.358,-503.792l79.342,-58.183l0,561.975Z" style="fill:#fff;fill-rule:nonzero;"/><path d="M1395.037,1321.922l25.146,0l5.9,-467.633l-31.046,-22.771l0,490.404Zm48.908,24.071l-72.979,0l0,-561.975l79.342,58.183l-6.362,503.792Z" style="fill:#fff;fill-rule:nonzero;"/><path d="M1354.935,1345.993l-201.308,0l0,-596.846l97.483,-107.225l103.825,103.825l0,528.496l-119.129,0l0,-454.513l24.071,0l0,430.442l70.987,0l0,-494.454l-78.925,-78.925l-74.242,81.658l0,563.471l153.167,0l0,-24.763l24.071,0l0,48.833Z" style="fill:#fff;fill-rule:nonzero;"/><path d="M1545.665,1345.993l-79.267,0l0,-476.475l79.267,102.167l0,55.025l-24.071,0l0,-46.783l-31.125,-40.112l0,382.108l31.125,0l0,-211.196l24.071,0l0,235.267Z" style="fill:#fff;fill-rule:nonzero;"/><path d="M1036.645,1345.993l-93.983,0l0,-324.713l93.983,-49.462l0,65.929l-24.071,0l0,-26.058l-45.842,24.125l0,286.108l45.842,0l0,-234.5l24.071,0l0,258.571Z" style="fill:#fff;fill-rule:nonzero;"/></g></g></svg>